<svg width="151" height="80" viewBox="0 0 151 80" fill="none" xmlns="http://www.w3.org/2000/svg">
<path d="M74.6854 29.3976C71.2048 25.3815 65.8501 22.8648 59.7992 22.8648C53.8554 22.8648 48.6078 25.328 45.1272 29.237C48.6078 23.9358 54.498 20.4016 61.245 20.1339C61.4056 20.1339 61.6198 20.1339 61.834 20.1339C62.1017 20.1339 62.3695 20.1874 62.6372 20.1874C63.2262 20.241 63.8688 20.3481 64.5649 20.5623C65.261 20.7765 66.0107 20.9906 66.7604 21.3655C67.51 21.7403 68.2597 22.1687 69.0094 22.6506C69.759 23.1861 70.4552 23.7751 71.1513 24.4177C71.8474 25.0603 72.4364 25.7564 73.0254 26.5596C73.2932 26.9344 73.5609 27.3628 73.8287 27.7376C74.0964 28.166 74.3106 28.5408 74.5248 28.9692C74.5248 29.1299 74.5783 29.237 74.6854 29.3976Z" fill="white"/>
<path d="M76.988 53.6011C73.2932 57.7242 67.9384 60.3481 61.9411 60.3481C54.8728 60.3481 48.6613 56.7068 45.0736 51.245C48.5542 55.154 53.8554 57.6171 59.7992 57.6171C64.4043 57.6171 68.6346 56.1178 71.901 53.6011H76.988Z" fill="white"/>
<path d="M82.1285 40.2142V40.3213H78.1125C78.1125 40.1607 78.1125 40 78.1125 39.7858C78.0589 38.9291 78.0054 37.6975 77.8447 36.1981C77.6841 34.6988 77.3628 32.9853 76.7202 31.1647C76.3989 30.2544 75.9706 29.3976 75.4886 28.4873C75.2744 28.0589 75.0067 27.6305 74.6854 27.2557C74.4177 26.8273 74.0964 26.4525 73.7751 26.0241C73.1325 25.2744 72.4364 24.5248 71.6867 23.8822C70.9371 23.2396 70.1874 22.6506 69.3842 22.1687C68.581 21.6868 67.7778 21.2584 66.9746 20.9371C66.1714 20.6158 65.4217 20.4016 64.672 20.241C64.5649 20.241 64.4578 20.1874 64.3507 20.1874C74.3106 21.3655 82.1285 29.8795 82.1285 40.2142Z" fill="white"/>
<path d="M24.2972 40.7497C23.7617 39.8929 22.905 39.1433 21.7805 38.5542C20.6024 37.9652 18.6747 37.3762 15.9973 36.7872C14.9264 36.573 14.2303 36.3052 13.909 36.0375C13.5877 35.7698 13.4806 35.502 13.4806 35.1807C13.4806 34.7524 13.6412 34.3775 14.0161 34.0562C14.3909 33.735 14.9264 33.5743 15.6225 33.5743C16.4793 33.5743 17.1754 33.7885 17.6573 34.1633C18.1392 34.5917 18.4605 35.2343 18.6212 36.1446L24.4043 35.8233C24.1366 33.735 23.3333 32.2356 21.9947 31.3253C20.656 30.3615 18.7283 29.8795 16.158 29.8795C14.0696 29.8795 12.4632 30.1473 11.2851 30.6827C10.1071 31.2182 9.19679 31.9143 8.60777 32.8246C8.01875 33.735 7.69746 34.6988 7.69746 35.7162C7.69746 37.2691 8.28648 38.5542 9.46453 39.5716C10.6426 40.589 12.5703 41.3922 15.2477 41.9813C16.9076 42.3561 17.925 42.7309 18.407 43.1593C18.8353 43.5877 19.1031 44.0161 19.1031 44.5516C19.1031 45.087 18.8889 45.569 18.407 45.9973C17.925 46.4257 17.2825 46.5328 16.3722 46.5328C15.1941 46.5328 14.2838 46.2115 13.6412 45.4083C13.2664 44.9264 12.9987 44.1767 12.838 43.2129L7.00134 43.5877C7.16199 45.6225 7.91165 47.2289 9.19679 48.5676C10.4819 49.8528 12.838 50.5489 16.2115 50.5489C18.1392 50.5489 19.7457 50.2811 21.0308 49.6921C22.3159 49.1566 23.2798 48.2999 23.9759 47.2289C24.672 46.158 25.0469 44.9799 25.0469 43.6948C25.1004 42.5703 24.8327 41.6064 24.2972 40.7497Z" fill="white"/>
<path d="M44.0562 43.6948C44.0562 44.9264 43.7349 46.1044 43.0388 47.1754L42.9853 47.2289C42.8782 47.3896 42.7711 47.5502 42.6104 47.7109C41.9679 48.5676 41.0576 49.2102 39.9866 49.6921C38.7015 50.2276 37.1486 50.5489 35.1673 50.5489C31.7938 50.5489 29.4378 49.9063 28.1526 48.5676C26.8675 47.2825 26.1178 45.6225 25.9572 43.5877L31.8474 43.2129C31.9545 44.1767 32.2222 44.8728 32.5971 45.4083C33.2396 46.2115 34.1499 46.5328 35.328 46.5328C36.1847 46.5328 36.8809 46.4257 37.3628 45.9973C37.8447 45.569 38.0589 45.087 38.0589 44.5516C38.0589 44.0161 37.8447 43.5877 37.3628 43.1593C36.9344 42.7309 35.8635 42.3561 34.2035 41.9813C31.5261 41.3922 29.5984 40.589 28.4204 39.5716C27.2423 38.5542 26.6533 37.2691 26.6533 35.7162C26.6533 34.6988 26.9746 33.735 27.5636 32.8246C28.1526 31.9143 29.0629 31.2182 30.241 30.6827C31.419 30.1473 33.079 29.8795 35.1138 29.8795C37.6841 29.8795 39.6118 30.3615 40.9505 31.2718C41.5395 31.7001 42.075 32.2356 42.4498 32.9317C42.6105 33.1459 42.7175 33.4137 42.8246 33.6814C43.0924 34.324 43.253 35.0201 43.3601 35.8233L42.2356 35.8769L41.3253 35.9304L37.577 36.1446C37.4163 35.2343 37.0951 34.5917 36.6131 34.1633C36.1312 33.735 35.4351 33.5743 34.5783 33.5743C33.8822 33.5743 33.3467 33.735 32.9719 34.0562C32.5971 34.3775 32.4364 34.7524 32.4364 35.1807C32.4364 35.502 32.5971 35.7698 32.8648 36.0375C33.1325 36.3052 33.8287 36.5194 34.9532 36.7872C37.6305 37.3762 39.5582 37.9652 40.7363 38.5542C40.7898 38.5542 40.8434 38.6078 40.8969 38.6078C41.2718 38.822 41.593 38.9826 41.8608 39.1968C42.4498 39.6252 42.9317 40.1607 43.3066 40.6961C43.7885 41.6064 44.0562 42.6238 44.0562 43.6948Z" fill="white"/>
<path d="M71.8474 30.2544L67.4565 50.174H61.4592L57.925 37.6439L54.4445 50.174H48.4471L44.1098 30.8434L44.0562 30.4686L44.0027 30.2544H49.8394L51.9277 41.3923L55.0335 30.2544H60.8702L63.9224 41.3923L66.0643 30.2544H71.8474Z" fill="white"/>
<path d="M83.1459 41.3387H78.0589V46.4257H83.1459V41.3387Z" fill="white"/>
<path d="M76.988 41.3387H71.9009V46.4257H76.988V41.3387Z" fill="white"/>
<path d="M83.1459 47.4431H78.0589V52.5301H83.1459V47.4431Z" fill="white"/>
<path d="M76.988 47.4431H71.9009V52.5301H76.988V47.4431Z" fill="white"/>
<path d="M95.569 33.4137H92.6238V27.7912H95.4619V28.3802H93.2664V30.2544H95.3012V30.8434H93.2664V32.8246H95.569V33.4137Z" fill="white"/>
<path d="M100.924 33.4137H100.12L97.2289 28.9692C97.1754 28.8621 97.1218 28.755 97.0683 28.5944C97.0683 28.7015 97.1218 28.9692 97.1218 29.344V33.4137H96.4793V27.7912H97.336L100.12 32.1821C100.228 32.3427 100.335 32.5034 100.335 32.5569C100.335 32.3963 100.281 32.1285 100.281 31.7537V27.7912H100.924V33.4137Z" fill="white"/>
<path d="M105.475 28.3802H103.869V33.4137H103.226V28.3802H101.62V27.7912H105.529V28.3802H105.475Z" fill="white"/>
<path d="M109.116 33.4137H106.171V27.7912H109.009V28.3802H106.814V30.2544H108.849V30.8434H106.814V32.8246H109.116V33.4137Z" fill="white"/>
<path d="M113.989 33.4137H113.24L112.276 31.8608C112.169 31.7001 112.115 31.593 112.008 31.4859C111.901 31.3789 111.847 31.3253 111.74 31.2182C111.633 31.1647 111.58 31.1111 111.473 31.0576C111.365 31.004 111.258 31.004 111.151 31.004H110.616V33.4137H109.973V27.7912H111.633C111.901 27.7912 112.115 27.8447 112.329 27.8983C112.544 27.9518 112.704 28.0589 112.865 28.166C113.025 28.2731 113.133 28.4337 113.24 28.6479C113.347 28.8086 113.347 29.0763 113.347 29.2905C113.347 29.5047 113.293 29.6653 113.24 29.826C113.186 29.9866 113.079 30.1473 112.972 30.2544C112.865 30.3614 112.758 30.4685 112.597 30.5756C112.436 30.6827 112.276 30.7363 112.062 30.7898C112.169 30.8434 112.222 30.8969 112.329 30.9505C112.383 31.004 112.49 31.0576 112.544 31.1647C112.597 31.2182 112.651 31.3253 112.704 31.4324C112.758 31.5395 112.811 31.6466 112.918 31.7537L113.989 33.4137ZM110.669 28.3802V30.415H111.58C111.74 30.415 111.901 30.415 112.008 30.3614C112.169 30.3079 112.276 30.2544 112.383 30.1473C112.49 30.0402 112.544 29.9331 112.597 29.826C112.651 29.7189 112.704 29.5582 112.704 29.3976C112.704 29.0763 112.597 28.8621 112.436 28.7015C112.222 28.5408 111.954 28.4337 111.58 28.4337H110.669V28.3802Z" fill="white"/>
<path d="M115.221 31.2718V33.4137H114.578V27.7912H116.131C116.72 27.7912 117.202 27.9518 117.523 28.2195C117.845 28.4873 118.005 28.9157 118.005 29.4511C118.005 29.9866 117.845 30.415 117.47 30.7363C117.095 31.0576 116.613 31.2182 115.971 31.2182H115.221V31.2718ZM115.221 28.3802V30.6827H115.917C116.345 30.6827 116.72 30.5756 116.934 30.3614C117.149 30.1473 117.309 29.8795 117.309 29.5047C117.309 28.755 116.881 28.3802 115.971 28.3802H115.221Z" fill="white"/>
<path d="M122.825 33.4137H122.021L121.058 31.8608C120.95 31.7001 120.897 31.593 120.79 31.4859C120.683 31.3789 120.629 31.3253 120.522 31.2182C120.415 31.1647 120.361 31.1111 120.254 31.0576C120.147 31.004 120.04 31.004 119.933 31.004H119.398V33.4137H118.755V27.7912H120.415C120.683 27.7912 120.897 27.8447 121.111 27.8983C121.325 27.9518 121.486 28.0589 121.647 28.166C121.807 28.2731 121.914 28.4337 122.021 28.6479C122.129 28.8086 122.129 29.0763 122.129 29.2905C122.129 29.5047 122.075 29.6653 122.021 29.826C121.968 29.9866 121.861 30.1473 121.754 30.2544C121.647 30.3614 121.54 30.4685 121.379 30.5756C121.218 30.6827 121.058 30.7363 120.843 30.7898C120.95 30.8434 121.004 30.8969 121.111 30.9505C121.165 31.004 121.272 31.0576 121.325 31.1647C121.379 31.2182 121.432 31.3253 121.486 31.4324C121.54 31.5395 121.593 31.6466 121.7 31.7537L122.825 33.4137ZM119.451 28.3802V30.415H120.361C120.522 30.415 120.683 30.415 120.843 30.3614C121.004 30.3079 121.111 30.2544 121.218 30.1473C121.325 30.0402 121.379 29.9331 121.432 29.826C121.486 29.7189 121.54 29.5582 121.54 29.3976C121.54 29.0763 121.432 28.8621 121.272 28.7015C121.058 28.5408 120.79 28.4337 120.415 28.4337H119.451V28.3802Z" fill="white"/>
<path d="M124.592 27.7912V28.3802H124.056V32.8782H124.592V33.4137H122.825V32.8246H123.36V28.3266H122.825V27.7376H124.592V27.7912Z" fill="white"/>
<path d="M125.02 33.1995V32.4498C125.127 32.5034 125.234 32.6104 125.341 32.664C125.448 32.7175 125.609 32.7711 125.716 32.8246C125.877 32.8782 125.984 32.8782 126.145 32.9317C126.305 32.9317 126.412 32.9853 126.519 32.9853C126.948 32.9853 127.216 32.9317 127.43 32.7711C127.644 32.6104 127.751 32.3963 127.751 32.1285C127.751 31.9679 127.697 31.8608 127.644 31.7537C127.59 31.6466 127.483 31.5395 127.376 31.4324C127.269 31.3253 127.108 31.2718 126.948 31.1647C126.787 31.0576 126.627 31.004 126.412 30.8969C126.198 30.7898 126.038 30.6827 125.877 30.5756C125.716 30.4685 125.556 30.3614 125.448 30.2544C125.341 30.1473 125.234 29.9866 125.127 29.826C125.074 29.6653 125.02 29.5047 125.02 29.2905C125.02 29.0228 125.074 28.8086 125.181 28.6479C125.288 28.4337 125.448 28.3266 125.609 28.166C125.77 28.0589 125.984 27.9518 126.252 27.8983C126.466 27.8447 126.734 27.7912 126.948 27.7912C127.483 27.7912 127.912 27.8447 128.179 28.0054V28.755C127.858 28.5408 127.43 28.4337 126.894 28.4337C126.734 28.4337 126.627 28.4337 126.466 28.4873C126.305 28.5408 126.198 28.5408 126.091 28.6479C125.984 28.7015 125.877 28.8086 125.823 28.9157C125.77 29.0228 125.716 29.1299 125.716 29.2905C125.716 29.4511 125.716 29.5582 125.77 29.6653C125.823 29.7724 125.877 29.8795 125.984 29.9331C126.091 30.0402 126.198 30.0937 126.359 30.2008C126.519 30.3079 126.68 30.3614 126.894 30.4685C127.108 30.5756 127.269 30.6827 127.483 30.7898C127.644 30.8969 127.805 31.004 127.965 31.1647C128.126 31.2718 128.233 31.4324 128.286 31.593C128.34 31.7537 128.394 31.9143 128.394 32.1285C128.394 32.3963 128.34 32.664 128.233 32.8246C128.126 33.0388 127.965 33.1459 127.805 33.3066C127.644 33.4137 127.43 33.5208 127.162 33.5743C126.948 33.6278 126.68 33.6278 126.412 33.6278C126.305 33.6278 126.198 33.6278 126.091 33.6278C125.984 33.6278 125.823 33.5743 125.716 33.5743C125.556 33.5208 125.448 33.5208 125.341 33.4672C125.181 33.253 125.074 33.253 125.02 33.1995Z" fill="white"/>
<path d="M132.303 33.4137H129.304V27.7912H132.142V28.3802H129.946V30.2544H131.981V30.8434H129.946V32.8246H132.249V33.4137H132.303Z" fill="white"/>
<path d="M92.3026 42.7845V42.0348C92.4096 42.0884 92.5167 42.1955 92.6238 42.249C92.7309 42.3025 92.8916 42.3561 92.9987 42.4096C93.1593 42.4632 93.2664 42.4632 93.4271 42.5167C93.5877 42.5167 93.6948 42.5703 93.8019 42.5703C94.2303 42.5703 94.498 42.5167 94.7122 42.3561C94.9264 42.1954 95.0335 41.9813 95.0335 41.7135C95.0335 41.5529 94.9799 41.4458 94.9264 41.3387C94.8728 41.2316 94.7657 41.1245 94.6586 41.0174C94.5516 40.9103 94.3909 40.8568 94.2303 40.7497C94.0696 40.6426 93.909 40.589 93.6948 40.4819C93.4806 40.3748 93.32 40.2677 93.1593 40.1606C92.9987 40.0535 92.838 39.9465 92.7309 39.8394C92.6238 39.7323 92.5167 39.5716 92.4097 39.411C92.3561 39.2503 92.3026 39.0897 92.3026 38.8755C92.3026 38.6078 92.3561 38.3936 92.4632 38.2329C92.5703 38.0187 92.7309 37.9116 92.8916 37.751C93.0522 37.6439 93.2664 37.5368 93.5341 37.4833C93.7483 37.4297 94.0161 37.3762 94.2303 37.3762C94.7657 37.3762 95.1941 37.4297 95.4619 37.5904V38.2329C95.1406 38.0187 94.7122 37.9117 94.1767 37.9117C94.0161 37.9117 93.909 37.9116 93.7483 37.9652C93.5877 38.0187 93.4806 38.0187 93.3735 38.1258C93.2664 38.1794 93.1593 38.2865 93.1058 38.3936C93.0522 38.5007 92.9987 38.6078 92.9987 38.7684C92.9987 38.9291 92.9987 39.0361 93.0522 39.1432C93.1058 39.2503 93.1593 39.3574 93.2664 39.411C93.3735 39.5181 93.4806 39.5716 93.6412 39.6787C93.8019 39.7323 93.9625 39.8394 94.1767 39.9465C94.3909 40.0535 94.5516 40.1606 94.7657 40.2677C94.9264 40.3748 95.087 40.4819 95.2477 40.6426C95.4083 40.7497 95.5154 40.9103 95.569 41.071C95.6225 41.2316 95.676 41.3922 95.676 41.6064C95.676 41.8742 95.6225 42.1419 95.5154 42.3025C95.4083 42.5167 95.2477 42.6238 95.087 42.7845C94.9264 42.8916 94.7122 42.9987 94.4445 43.0522C94.2303 43.1058 93.9625 43.1593 93.6948 43.1593C93.5877 43.1593 93.4806 43.1593 93.3735 43.1593C93.2664 43.1593 93.1058 43.1058 92.9987 43.1058C92.838 43.0522 92.7309 43.0522 92.6238 42.9987C92.5167 42.8916 92.4096 42.838 92.3026 42.7845Z" fill="white"/>
<path d="M98.8889 43.1058C98.0857 43.1058 97.4431 42.838 96.9612 42.3025C96.4793 41.7671 96.2651 41.1245 96.2651 40.2677C96.2651 39.3574 96.5328 38.6613 97.0147 38.1258C97.4967 37.5904 98.1392 37.3226 98.996 37.3226C99.7457 37.3226 100.388 37.5904 100.87 38.1258C101.352 38.6613 101.566 39.3039 101.566 40.1606C101.566 41.071 101.299 41.8206 100.817 42.3561C100.335 42.838 99.6921 43.1058 98.8889 43.1058ZM98.9425 37.9117C98.3534 37.9117 97.8715 38.1258 97.4967 38.5542C97.1218 38.9826 96.9612 39.5181 96.9612 40.2142C96.9612 40.9103 97.1218 41.4458 97.4967 41.8742C97.8715 42.3026 98.2999 42.5167 98.8889 42.5167C99.4779 42.5167 100.013 42.3026 100.335 41.9277C100.71 41.4993 100.87 40.9639 100.87 40.2677C100.87 39.5181 100.71 38.9826 100.335 38.5542C100.013 38.1258 99.5315 37.9117 98.9425 37.9117Z" fill="white"/>
<path d="M105.261 38.0187H103.066V39.9464H105.1V40.5355H103.066V42.9987H102.423V37.4297H105.261V38.0187Z" fill="white"/>
<path d="M109.491 38.0187H107.885V43.0522H107.242V38.0187H105.636V37.4297H109.545V38.0187H109.491Z" fill="white"/>
<path d="M116.934 37.4297L115.328 43.0522H114.578L113.4 38.9826C113.347 38.822 113.347 38.6078 113.293 38.3936C113.293 38.6078 113.24 38.7684 113.186 38.9826L112.008 43.1058H111.258L109.598 37.4833H110.295L111.473 41.7671C111.526 41.9277 111.58 42.1419 111.58 42.3561C111.58 42.1954 111.633 42.0348 111.687 41.7671L112.918 37.4833H113.561L114.739 41.8206C114.793 41.9813 114.793 42.1419 114.846 42.3561C114.846 42.1954 114.9 42.0348 114.953 41.8206L116.078 37.4833H116.934V37.4297Z" fill="white"/>
<path d="M121.593 42.9987H120.843L120.254 41.4458H117.898L117.363 42.9987H116.613L118.755 37.3762H119.451L121.593 42.9987ZM120.094 40.8568L119.237 38.4471C119.183 38.3936 119.183 38.2329 119.13 38.0723C119.13 38.2329 119.076 38.34 119.023 38.4471L118.166 40.8568H120.094Z" fill="white"/>
<path d="M126.252 42.9987H125.448L124.485 41.4458C124.378 41.2851 124.324 41.178 124.217 41.071C124.11 40.9639 124.056 40.9103 123.949 40.8032C123.842 40.6961 123.788 40.6961 123.681 40.6426C123.574 40.589 123.467 40.589 123.36 40.589H122.825V42.9987H122.182V37.4297H123.842C124.11 37.4297 124.324 37.4833 124.538 37.5368C124.752 37.5904 124.913 37.6975 125.074 37.8045C125.234 37.9116 125.341 38.0723 125.448 38.2865C125.556 38.4471 125.556 38.7149 125.556 38.9291C125.556 39.1432 125.502 39.3039 125.448 39.4645C125.395 39.6252 125.288 39.7858 125.181 39.8929C125.074 40 124.967 40.1071 124.806 40.2142C124.645 40.3213 124.485 40.3748 124.27 40.4284C124.378 40.4819 124.431 40.5355 124.538 40.589C124.592 40.6426 124.699 40.6961 124.752 40.8032C124.806 40.8568 124.859 40.9639 124.913 41.071C124.967 41.178 125.02 41.2851 125.127 41.3922L126.252 42.9987ZM122.878 38.0187V40.0535H123.788C123.949 40.0535 124.11 40.0535 124.217 40C124.378 39.9465 124.485 39.8929 124.592 39.7858C124.699 39.6787 124.752 39.5716 124.806 39.4645C124.859 39.3574 124.913 39.1968 124.913 39.0361C124.913 38.7149 124.806 38.5007 124.645 38.34C124.431 38.1794 124.163 38.0723 123.788 38.0723H122.878V38.0187Z" fill="white"/>
<path d="M129.732 42.9987H126.787V37.4297H129.625V38.0187H127.43V39.8929H129.465V40.4819H127.43V42.4632H129.732V42.9987Z" fill="white"/>
<path d="M92.5703 52.6372V47.0147H94.1232C96.1044 47.0147 97.0683 47.925 97.0683 49.7457C97.0683 50.6024 96.8006 51.2985 96.2651 51.834C95.7296 52.3695 94.9799 52.6372 94.0696 52.6372H92.5703ZM93.2664 47.6038V51.9947H94.1232C94.8728 51.9947 95.4083 51.7805 95.8367 51.4056C96.2651 51.0308 96.4257 50.4418 96.4257 49.7457C96.4257 48.2999 95.6761 47.6038 94.1232 47.6038H93.2664Z" fill="white"/>
<path d="M100.924 52.6372H97.9786V47.0147H100.817V47.6038H98.6212V49.4779H100.656V50.0669H98.6212V52.0482H100.924V52.6372Z" fill="white"/>
<path d="M105.957 47.0147L103.869 52.6372H103.119L101.084 47.0147H101.834L103.387 51.4592C103.44 51.6198 103.494 51.7805 103.494 51.9411C103.494 51.7805 103.548 51.6198 103.601 51.4592L105.208 47.0147H105.957Z" fill="white"/>
<path d="M109.545 52.6372H106.6V47.0147H109.438V47.6038H107.242V49.4779H109.277V50.0669H107.242V52.0482H109.545V52.6372Z" fill="white"/>
<path d="M113.293 52.6372H110.402V47.0147H111.044V52.0482H113.293V52.6372Z" fill="white"/>
<path d="M115.917 52.6908C115.114 52.6908 114.471 52.423 113.989 51.8876C113.507 51.3521 113.293 50.7095 113.293 49.8528C113.293 48.9424 113.561 48.2463 114.043 47.7109C114.525 47.1754 115.167 46.9076 116.024 46.9076C116.774 46.9076 117.416 47.1754 117.898 47.7109C118.38 48.2463 118.594 48.8889 118.594 49.7457C118.594 50.656 118.327 51.4056 117.845 51.9411C117.363 52.4766 116.72 52.6908 115.917 52.6908ZM115.971 47.4967C115.382 47.4967 114.9 47.7109 114.525 48.1392C114.15 48.5676 113.989 49.1031 113.989 49.7992C113.989 50.4953 114.15 51.0308 114.525 51.4592C114.9 51.8876 115.328 52.1018 115.917 52.1018C116.506 52.1018 117.042 51.8876 117.363 51.5127C117.738 51.1379 117.898 50.5489 117.898 49.8528C117.898 49.1031 117.738 48.5676 117.363 48.1392C117.042 47.7109 116.56 47.4967 115.971 47.4967Z" fill="white"/>
<path d="M120.147 50.4953V52.6372H119.505V47.0147H121.058C121.647 47.0147 122.129 47.1754 122.45 47.4431C122.771 47.7109 122.932 48.1392 122.932 48.6747C122.932 49.2102 122.771 49.6386 122.396 49.9599C122.021 50.2811 121.54 50.4418 120.897 50.4418H120.147V50.4953ZM120.147 47.6038V49.9063H120.843C121.272 49.9063 121.647 49.7992 121.861 49.585C122.075 49.3708 122.236 49.1031 122.236 48.7283C122.236 47.9786 121.807 47.6038 120.897 47.6038H120.147Z" fill="white"/>
<path d="M129.465 52.6372H128.822V48.8889C128.822 48.5676 128.822 48.2463 128.876 47.818C128.822 48.0857 128.768 48.2463 128.715 48.3534L126.787 52.6372H126.466L124.538 48.3534C124.485 48.2463 124.431 48.0321 124.378 47.7644C124.378 47.9786 124.431 48.3534 124.431 48.8889V52.6372H123.789V47.0147H124.645L126.359 50.9237C126.466 51.245 126.573 51.4592 126.627 51.6198C126.734 51.2985 126.841 51.0843 126.894 50.9237L128.661 47.0147H129.465V52.6372Z" fill="white"/>
<path d="M133.695 52.6372H130.75V47.0147H133.588V47.6038H131.392V49.4779H133.427V50.0669H131.392V52.0482H133.695V52.6372Z" fill="white"/>
<path d="M139.05 52.6372H138.246L135.355 48.1928C135.301 48.0857 135.248 47.9786 135.194 47.818C135.194 47.925 135.248 48.1928 135.248 48.5676V52.6372H134.605V47.0147H135.462L138.246 51.4056C138.353 51.5663 138.461 51.7269 138.461 51.7805C138.461 51.6198 138.407 51.3521 138.407 50.9773V47.0147H139.05V52.6372Z" fill="white"/>
<path d="M143.601 47.6038H141.995V52.6372H141.352V47.6038H139.746V47.0147H143.655V47.6038H143.601Z" fill="white"/>
</svg>
